<?xml version="1.0" encoding="utf-8"?>
<!-- Generator: Adobe Illustrator 30.0.0, SVG Export Plug-In . SVG Version: 9.03 Build 0)  -->
<svg version="1.0" id="Layer_1" xmlns="http://www.w3.org/2000/svg" xmlns:xlink="http://www.w3.org/1999/xlink" x="0px" y="0px"
	 viewBox="0 0 1088.55 420.64" style="enable-background:new 0 0 1088.55 420.64;" xml:space="preserve">
<style type="text/css">
	.st0{fill:#015EE3;}
	.st1{fill:#197BF2;}
	.st2{fill:url(#SVGID_1_);}
	.st3{fill:#0A2860;}
	.st4{enable-background:new    ;}
	.st5{fill:#FFFFFF;}
	.st6{fill:#0066DE;}
	.st7{fill:#00ACBB;}
	.st8{fill:url(#SVGID_00000168806019231133615060000006150599850437418162_);}
</style>
<g>
	<path class="st0" d="M187.5,148.83l35.57,81.59c14.47-6.46,36.55-20.39,44.55-27.24L220.85,94.61l-45.11,0.02L187.5,148.83z"/>
	<path class="st1" d="M265.34,325.8h57.56l-44.27-98.28c-13.14,11.48-27.21,23.25-42.58,34.62L265.34,325.8z"/>
	
		<linearGradient id="SVGID_1_" gradientUnits="userSpaceOnUse" x1="92.6" y1="-1398.335" x2="340.47" y2="-1398.335" gradientTransform="matrix(1 0 0 -1 0 -1156)">
		<stop  offset="0" style="stop-color:#0A2860"/>
		<stop  offset="5.099297e-03" style="stop-color:#0A2B62"/>
		<stop  offset="0.0833" style="stop-color:#095583"/>
		<stop  offset="0.1666" style="stop-color:#077AA0"/>
		<stop  offset="0.2568" style="stop-color:#069AB9"/>
		<stop  offset="0.3541" style="stop-color:#05B4CD"/>
		<stop  offset="0.4614" style="stop-color:#05C7DD"/>
		<stop  offset="0.584" style="stop-color:#04D5E8"/>
		<stop  offset="0.7353" style="stop-color:#04DEEE"/>
		<stop  offset="1" style="stop-color:#04E0F0"/>
	</linearGradient>
	<path class="st2" d="M322.93,212.24l17.54-53.56l-53.87,15.24l18.39,7.62c-67.35,48.58-131.93,86.2-191.46,103.81L92.6,325.99
		c76.52-13.24,150.24-58.02,222.71-134.3L322.93,212.24z"/>
	<polygon class="st3" points="32.8,326.03 161.98,94.61 220.85,94.61 92.67,325.99 	"/>
</g>
<g>
	<g class="st4">
		<path class="st5" d="M434.26,195.94h-41.77l-5.11,11.24h-12.16l33.93-74.15h8.46l34.1,74.15h-12.34L434.26,195.94z M429.15,184.7
			l-15.69-34.24l-15.69,34.24H429.15z"/>
		<path class="st5" d="M505.11,203.85c-5.11,3.71-10.99,5.57-17.62,5.57c-8.52,0-15.79-3.07-21.81-9.21s-9.03-13.56-9.03-22.25
			s3.01-16.1,9.03-22.25c6.02-6.14,13.29-9.21,21.81-9.21c6.64,0,12.51,1.86,17.62,5.57v-19.05h11.02v74.15h-11.02L505.11,203.85
			L505.11,203.85z M505.11,187.31v-18.7c-0.94-1.8-2.15-3.44-3.61-4.94c-3.88-3.95-8.55-5.93-14.01-5.93s-10.13,1.98-14.01,5.93
			c-3.88,3.96-5.82,8.72-5.82,14.29c0,5.57,1.94,10.34,5.82,14.29c3.88,3.96,8.55,5.93,14.01,5.93s10.13-1.98,14.01-5.93
			C502.96,190.76,504.17,189.11,505.11,187.31z"/>
		<path class="st5" d="M537,148.75l13.48,38.2l13.22-38.2h11.81l-20.79,58.42H546l-20.8-58.42H537z"/>
		<path class="st5" d="M628.38,203.85c-5.11,3.71-10.99,5.57-17.62,5.57c-8.52,0-15.79-3.07-21.81-9.21s-9.03-13.56-9.03-22.25
			s3.01-16.1,9.03-22.25c6.02-6.14,13.29-9.21,21.81-9.21c6.64,0,12.51,1.86,17.62,5.57v-3.33h11.02v58.42h-11.02V203.85z
			 M628.38,187.31v-18.7c-0.94-1.8-2.14-3.44-3.61-4.94c-3.88-3.95-8.55-5.93-14.01-5.93s-10.13,1.98-14.01,5.93
			c-3.88,3.96-5.81,8.72-5.81,14.29c0,5.57,1.94,10.34,5.81,14.29c3.88,3.96,8.55,5.93,14.01,5.93s10.13-1.98,14.01-5.93
			C626.24,190.76,627.44,189.11,628.38,187.31z"/>
		<path class="st5" d="M668.04,166.91v40.27h-11.01v-58.51h11.01V151c4.52-3,9.66-4.49,15.42-4.49c7.93,0,14.69,2.85,20.27,8.54
			c5.58,5.69,8.37,12.58,8.37,20.67v31.46h-11.02v-31.46c0-4.97-1.72-9.21-5.15-12.72s-7.59-5.26-12.47-5.26
			c-4.88,0-9.02,1.74-12.42,5.21C669.8,164.21,668.8,165.53,668.04,166.91z"/>
		<path class="st5" d="M767.87,192.34l7.84,7.91c-5.99,6.11-13.25,9.17-21.76,9.17c-8.52,0-15.79-3.07-21.81-9.21
			s-9.03-13.56-9.03-22.25s3.01-16.1,9.03-22.25c6.02-6.14,13.29-9.21,21.81-9.21s15.77,3.06,21.76,9.17l-7.84,7.91
			c-3.82-3.89-8.46-5.84-13.92-5.84c-5.46,0-10.13,1.98-14.01,5.93c-3.88,3.96-5.82,8.72-5.82,14.29c0,5.57,1.94,10.34,5.82,14.29
			c3.88,3.96,8.55,5.93,14.01,5.93C759.41,198.19,764.05,196.24,767.87,192.34z"/>
		<path class="st5" d="M841.01,159.99l-8.02,8.18l-26.96,27.5c2.88,1.68,6.08,2.52,9.6,2.52c6.05,0,11.25-2.58,15.6-7.73l8.63,6.92
			c-6.46,8.03-14.54,12.04-24.23,12.04c-8.52,0-15.79-3.07-21.81-9.21s-9.03-13.56-9.03-22.25s3.01-16.1,9.03-22.25
			c6.02-6.14,13.29-9.21,21.81-9.21s15.8,3.06,21.85,9.17C838.78,157.05,839.95,158.49,841.01,159.99z M825.24,160.26
			c-2.88-1.68-6.08-2.52-9.61-2.52c-5.46,0-10.13,1.98-14.01,5.93c-3.88,3.96-5.82,8.72-5.82,14.29c0,3.6,0.82,6.86,2.47,9.8
			L825.24,160.26z"/>
	</g>
	<g class="st4">
		<path class="st6" d="M899.34,206.01v-2.16c-5.11,3.71-10.99,5.57-17.62,5.57c-8.52,0-15.79-3.07-21.81-9.21
			s-9.03-13.56-9.03-22.25s3.01-16.1,9.03-22.25c6.02-6.14,13.29-9.21,21.81-9.21c6.64,0,12.51,1.86,17.62,5.57v-3.33h11.02v57.25
			c0,8.39-2.91,15.55-8.72,21.48c-5.82,5.93-12.81,8.9-20.97,8.9v-11.24c5.17,0,9.58-1.86,13.22-5.57
			C897.52,215.86,899.34,211.34,899.34,206.01z M899.34,187.31v-18.7c-0.94-1.8-2.14-3.44-3.61-4.94
			c-3.88-3.95-8.55-5.93-14.01-5.93s-10.13,1.98-14.01,5.93c-3.88,3.96-5.81,8.72-5.81,14.29c0,5.57,1.94,10.34,5.81,14.29
			c3.88,3.96,8.55,5.93,14.01,5.93s10.13-1.98,14.01-5.93C897.2,190.76,898.4,189.11,899.34,187.31z"/>
		<path class="st6" d="M979.8,159.99l-8.02,8.18l-26.96,27.5c2.88,1.68,6.08,2.52,9.61,2.52c6.05,0,11.25-2.58,15.6-7.73l8.64,6.92
			c-6.46,8.03-14.54,12.04-24.23,12.04c-8.52,0-15.79-3.07-21.81-9.21s-9.03-13.56-9.03-22.25s3.01-16.1,9.03-22.25
			c6.02-6.14,13.29-9.21,21.81-9.21s15.8,3.06,21.85,9.17C977.56,157.05,978.74,158.49,979.8,159.99z M964.02,160.26
			c-2.88-1.68-6.08-2.52-9.61-2.52c-5.46,0-10.13,1.98-14.01,5.93c-3.88,3.96-5.81,8.72-5.81,14.29c0,3.6,0.82,6.86,2.47,9.8
			L964.02,160.26z"/>
		<path class="st6" d="M1005.09,166.91v40.27h-11.01v-58.51h11.01V151c4.52-3,9.66-4.49,15.42-4.49c7.93,0,14.69,2.85,20.27,8.54
			c5.58,5.69,8.37,12.58,8.37,20.67v31.46h-11.01v-31.46c0-4.97-1.72-9.21-5.16-12.72c-3.44-3.51-7.59-5.26-12.47-5.26
			s-9.02,1.74-12.42,5.21C1006.85,164.21,1005.85,165.53,1005.09,166.91z"/>
	</g>
	<g>
		<g>
			<g>
				<path class="st7" d="M380.04,272.16v-27.03h3.43v7.31l-0.56-1.29c0.81-1.96,2.11-3.49,3.91-4.61s3.93-1.67,6.38-1.67
					c2.59,0,4.79,0.66,6.61,1.98c1.82,1.32,2.99,3.3,3.53,5.95l-1.41-0.57c0.77-2.2,2.14-3.97,4.11-5.33
					c1.97-1.36,4.33-2.03,7.09-2.03c2.15,0,4.03,0.42,5.63,1.26s2.84,2.12,3.74,3.83c0.89,1.72,1.34,3.88,1.34,6.49v15.7h-3.58
					v-15.34c0-2.85-0.67-5-1.99-6.46c-1.33-1.46-3.21-2.19-5.63-2.19c-1.82,0-3.39,0.39-4.72,1.16s-2.36,1.89-3.08,3.35
					s-1.08,3.22-1.08,5.28v14.21h-3.58v-15.34c0-2.85-0.67-5-2.02-6.46c-1.35-1.46-3.23-2.19-5.65-2.19c-1.78,0-3.35,0.39-4.69,1.16
					s-2.38,1.89-3.1,3.35s-1.08,3.22-1.08,5.28v14.21h-3.6L380.04,272.16L380.04,272.16z"/>
				<path class="st7" d="M451.15,272.42c-1.99,0-3.71-0.33-5.17-1c-1.46-0.67-2.58-1.6-3.36-2.78c-0.77-1.18-1.16-2.55-1.16-4.09
					c0-1.41,0.33-2.68,0.98-3.83c0.66-1.15,1.73-2.08,3.23-2.78s3.51-1.05,6.03-1.05h9.13v2.73h-9.03c-2.56,0-4.33,0.46-5.32,1.39
					c-0.99,0.93-1.49,2.08-1.49,3.45c0,1.54,0.59,2.78,1.77,3.71s2.83,1.39,4.95,1.39c2.02,0,3.76-0.47,5.22-1.42
					c1.46-0.94,2.53-2.31,3.2-4.09l0.81,2.52c-0.67,1.79-1.84,3.21-3.51,4.27C455.77,271.88,453.67,272.42,451.15,272.42z
					 M460.28,272.16v-5.97l-0.15-0.98v-9.99c0-2.3-0.63-4.07-1.89-5.3c-1.26-1.24-3.14-1.85-5.63-1.85c-1.72,0-3.35,0.29-4.9,0.88
					c-1.55,0.58-2.86,1.36-3.94,2.32l-1.62-2.73c1.35-1.17,2.96-2.07,4.84-2.7c1.88-0.63,3.87-0.95,5.96-0.95
					c3.43,0,6.08,0.87,7.95,2.6c1.87,1.73,2.8,4.37,2.8,7.9v16.78h-3.42L460.28,272.16L460.28,272.16z"/>
				<path class="st7" d="M483.55,272.16v-38.2h3.58v38.2H483.55z M486.38,265.16l0.1-4.68l16.5-15.34h4.39l-11.66,11.38l-2.02,1.75
					L486.38,265.16z M504.09,272.16l-11.05-14.05l2.32-2.83l13.12,16.88H504.09z"/>
				<path class="st7" d="M535.08,272.42c-2.76,0-5.18-0.59-7.27-1.78c-2.09-1.18-3.72-2.81-4.9-4.89c-1.18-2.08-1.77-4.45-1.77-7.13
					s0.56-5.04,1.69-7.1c1.13-2.06,2.67-3.68,4.64-4.87c1.97-1.18,4.18-1.78,6.64-1.78c2.49,0,4.7,0.58,6.64,1.72
					c1.93,1.15,3.46,2.76,4.57,4.84s1.67,4.47,1.67,7.18c0,0.17-0.01,0.35-0.03,0.54s-0.03,0.39-0.03,0.59h-23.06v-2.73h21.15
					l-1.41,1.08c0-1.96-0.41-3.7-1.24-5.23s-1.94-2.72-3.36-3.58c-1.41-0.86-3.04-1.29-4.9-1.29c-1.82,0-3.45,0.43-4.9,1.29
					s-2.57,2.06-3.38,3.6c-0.81,1.54-1.21,3.31-1.21,5.3v0.57c0,2.06,0.45,3.87,1.34,5.43s2.14,2.78,3.73,3.65
					c1.6,0.88,3.42,1.31,5.48,1.31c1.61,0,3.12-0.29,4.52-0.88c1.4-0.58,2.6-1.47,3.61-2.68l2.02,2.37
					c-1.18,1.44-2.65,2.54-4.42,3.29C539.14,272.04,537.2,272.42,535.08,272.42z"/>
				<path class="st7" d="M589.54,239.16c-0.74,0-1.36-0.26-1.87-0.77c-0.5-0.51-0.76-1.13-0.76-1.85s0.25-1.33,0.76-1.83
					c0.5-0.5,1.13-0.75,1.87-0.75s1.36,0.24,1.87,0.72s0.76,1.08,0.76,1.8c0,0.75-0.24,1.39-0.73,1.9
					C590.94,238.9,590.31,239.16,589.54,239.16z M587.72,272.16v-27.03h3.58v27.03H587.72z"/>
				<path class="st7" d="M607.25,248.17v-3.04h16.4v3.04H607.25z M619.77,272.42c-2.49,0-4.41-0.69-5.75-2.06
					c-1.35-1.37-2.02-3.31-2.02-5.82v-25.38h3.58v25.17c0,1.58,0.39,2.8,1.19,3.66c0.79,0.86,1.93,1.29,3.41,1.29
					c1.58,0,2.89-0.46,3.94-1.39l1.26,2.62c-0.71,0.65-1.56,1.13-2.55,1.44C621.83,272.26,620.81,272.42,619.77,272.42z"/>
				<path class="st7" d="M676.54,272.42c-2.76,0-5.18-0.59-7.27-1.78c-2.09-1.18-3.72-2.81-4.9-4.89c-1.18-2.08-1.77-4.45-1.77-7.13
					s0.56-5.04,1.69-7.1c1.13-2.06,2.67-3.68,4.64-4.87c1.97-1.18,4.18-1.78,6.64-1.78c2.49,0,4.7,0.58,6.64,1.72
					c1.93,1.15,3.46,2.76,4.57,4.84s1.67,4.47,1.67,7.18c0,0.17-0.01,0.35-0.03,0.54s-0.03,0.39-0.03,0.59h-23.06v-2.73h21.15
					l-1.41,1.08c0-1.96-0.41-3.7-1.24-5.23s-1.94-2.72-3.36-3.58c-1.41-0.86-3.04-1.29-4.9-1.29c-1.82,0-3.45,0.43-4.9,1.29
					s-2.57,2.06-3.38,3.6c-0.81,1.54-1.21,3.31-1.21,5.3v0.57c0,2.06,0.45,3.87,1.34,5.43s2.14,2.78,3.73,3.65
					c1.6,0.88,3.42,1.31,5.48,1.31c1.61,0,3.12-0.29,4.52-0.88c1.4-0.58,2.6-1.47,3.61-2.68l2.02,2.37
					c-1.18,1.44-2.65,2.54-4.42,3.29C680.61,272.04,678.66,272.42,676.54,272.42z"/>
				<path class="st7" d="M713.34,272.42c-1.99,0-3.71-0.33-5.17-1c-1.46-0.67-2.58-1.6-3.36-2.78c-0.77-1.18-1.16-2.55-1.16-4.09
					c0-1.41,0.33-2.68,0.98-3.83c0.66-1.15,1.73-2.08,3.23-2.78s3.51-1.05,6.03-1.05h9.13v2.73h-9.03c-2.56,0-4.33,0.46-5.32,1.39
					c-0.99,0.93-1.49,2.08-1.49,3.45c0,1.54,0.59,2.78,1.77,3.71s2.83,1.39,4.95,1.39c2.02,0,3.76-0.47,5.22-1.42
					c1.46-0.94,2.53-2.31,3.2-4.09l0.81,2.52c-0.67,1.79-1.84,3.21-3.51,4.27C717.95,271.88,715.86,272.42,713.34,272.42z
					 M722.47,272.16v-5.97l-0.15-0.98v-9.99c0-2.3-0.63-4.07-1.89-5.3c-1.26-1.24-3.14-1.85-5.63-1.85c-1.72,0-3.35,0.29-4.9,0.88
					c-1.55,0.58-2.86,1.36-3.94,2.32l-1.62-2.73c1.35-1.17,2.96-2.07,4.84-2.7c1.88-0.63,3.87-0.95,5.96-0.95
					c3.43,0,6.08,0.87,7.95,2.6c1.87,1.73,2.8,4.37,2.8,7.9v16.78h-3.42V272.16z"/>
				<path class="st7" d="M752.85,272.42c-2.19,0-4.26-0.32-6.21-0.95s-3.48-1.43-4.59-2.39l1.61-2.88c1.08,0.82,2.46,1.54,4.14,2.14
					s3.45,0.9,5.3,0.9c2.52,0,4.34-0.4,5.45-1.21s1.67-1.88,1.67-3.22c0-1-0.31-1.78-0.93-2.34c-0.62-0.57-1.44-1-2.45-1.29
					s-2.14-0.54-3.38-0.75c-1.25-0.21-2.48-0.45-3.71-0.72c-1.23-0.27-2.35-0.68-3.36-1.21s-1.83-1.26-2.45-2.19
					s-0.93-2.16-0.93-3.71c0-1.48,0.4-2.8,1.21-3.96s1.99-2.08,3.56-2.75s3.47-1,5.73-1c1.72,0,3.43,0.23,5.15,0.7
					s3.13,1.07,4.24,1.83l-1.56,2.93c-1.18-0.82-2.44-1.42-3.79-1.78s-2.69-0.54-4.04-0.54c-2.39,0-4.15,0.42-5.27,1.26
					c-1.13,0.84-1.69,1.91-1.69,3.22c0,1.03,0.31,1.84,0.93,2.42s1.45,1.04,2.47,1.36c1.03,0.33,2.15,0.59,3.38,0.8
					s2.46,0.46,3.68,0.75c1.23,0.29,2.35,0.69,3.38,1.18c1.03,0.5,1.85,1.2,2.47,2.11c0.62,0.91,0.93,2.1,0.93,3.58
					c0,1.58-0.43,2.94-1.29,4.09s-2.1,2.04-3.73,2.68C757.15,272.1,755.18,272.42,752.85,272.42z"/>
				<path class="st7" d="M780.66,282.4c-1.25,0-2.43-0.21-3.56-0.62s-2.09-1.03-2.9-1.85l1.67-2.73c0.67,0.65,1.41,1.16,2.2,1.52
					c0.79,0.36,1.67,0.54,2.65,0.54c1.18,0,2.2-0.33,3.05-1c0.86-0.67,1.67-1.85,2.45-3.53l1.72-3.96l0.4-0.57l10.9-25.07h3.53
					L789.5,275.4c-0.74,1.75-1.56,3.14-2.45,4.17s-1.86,1.76-2.9,2.19C783.1,282.19,781.94,282.4,780.66,282.4z M787.73,272.93
					l-12.21-27.8h3.73l10.8,24.81L787.73,272.93z"/>
			</g>
		</g>
	</g>
</g>
<linearGradient id="SVGID_00000110438416373494967470000011951481242633035147_" gradientUnits="userSpaceOnUse" x1="19" y1="538.5" x2="334" y2="538.5">
	<stop  offset="0" style="stop-color:#0A2860"/>
	<stop  offset="1.752334e-07" style="stop-color:#0A2B62"/>
	<stop  offset="0.5" style="stop-color:#197BF2"/>
	<stop  offset="1" style="stop-color:#04E0F0"/>
</linearGradient>
<rect x="19" y="483" style="fill:url(#SVGID_00000110438416373494967470000011951481242633035147_);" width="315" height="111"/>
<text transform="matrix(1 0 0 1 509 510)" style="font-family:'MyriadPro-Regular'; font-size:12px;">0a2b62</text>
<text transform="matrix(1 0 0 1 507 525)" style="font-family:'MyriadPro-Regular'; font-size:12px;">Lorem ipsum</text>
<text transform="matrix(1 0 0 1 507 543)" style="font-family:'MyriadPro-Regular'; font-size:12px;">Lorem ipsum</text>
</svg>
